<?xml version="1.0" encoding="UTF-8" standalone="no"?>
<svg
   xmlns:dc="http://purl.org/dc/elements/1.1/"
   xmlns:cc="http://creativecommons.org/ns#"
   xmlns:rdf="http://www.w3.org/1999/02/22-rdf-syntax-ns#"
   xmlns:svg="http://www.w3.org/2000/svg"
   xmlns="http://www.w3.org/2000/svg"
   xmlns:sodipodi="http://sodipodi.sourceforge.net/DTD/sodipodi-0.dtd"
   xmlns:inkscape="http://www.inkscape.org/namespaces/inkscape"
   viewBox="0 0 122.88 122.88"
   version="1.1"
   id="svg22"
   sodipodi:docname="favicon.svg"
   inkscape:version="1.0.2-2 (e86c870879, 2021-01-15)">
  <metadata
     id="metadata28">
    <rdf:RDF>
      <cc:Work
         rdf:about="">
        <dc:format>image/svg+xml</dc:format>
        <dc:type
           rdf:resource="http://purl.org/dc/dcmitype/StillImage" />
      </cc:Work>
    </rdf:RDF>
  </metadata>
  <defs
     id="defs26" />
  <sodipodi:namedview
     pagecolor="#ffffff"
     bordercolor="#666666"
     borderopacity="1"
     objecttolerance="10"
     gridtolerance="10"
     guidetolerance="10"
     inkscape:pageopacity="0"
     inkscape:pageshadow="2"
     inkscape:window-width="1920"
     inkscape:window-height="1001"
     id="namedview24"
     showgrid="false"
     inkscape:zoom="7.4922549"
     inkscape:cx="60.871521"
     inkscape:cy="55.027231"
     inkscape:window-x="-9"
     inkscape:window-y="-9"
     inkscape:window-maximized="1"
     inkscape:current-layer="svg22" />
  <path
     d="M17.89 0h88.9c8.85 0 16.1 7.24 16.1 16.1v90.68c0 8.85-7.24 16.1-16.1 16.1H16.1c-8.85 0-16.1-7.24-16.1-16.1v-88.9C0 8.05 8.05 0 17.89 0zm1.08 31.06h17.82l6.41 33.9 9.39-33.9h17.68l9.46 33.96 6.45-33.96h17.74l-13.4 60.76H72.1L61.44 53.56 50.85 91.82H32.46L18.97 31.06z"
     fill-rule="evenodd"
     clip-rule="evenodd"
     id="path20" />
  <path
     style="fill:#ffffff;stroke-width:0.133471"
     d="M 25.84345,61.667239 C 22.177454,45.131931 19.152333,31.497933 19.120957,31.369467 c -0.05389,-0.220672 0.430305,-0.233575 8.765076,-0.233575 h 8.822121 l 0.07166,0.30031 c 0.03941,0.165171 1.483945,7.774927 3.210072,16.91057 1.726126,9.135642 3.162458,16.634303 3.191847,16.663692 0.07241,0.07241 -0.132584,0.799841 4.947761,-17.557722 l 4.515591,-16.31685 h 8.78098 8.78098 l 0.200945,0.700724 c 0.110519,0.385398 2.214862,7.938197 4.676318,16.783999 4.76256,17.11534 4.583021,16.485069 4.670904,16.397186 0.03189,-0.03189 1.442369,-7.353033 3.134409,-16.269218 1.692038,-8.916184 3.140315,-16.526569 3.21839,-16.911967 l 0.141957,-0.700724 h 8.808629 c 8.327713,0 8.804683,0.01275 8.736363,0.233575 -0.0584,0.188791 -12.986395,58.72611 -13.24998,59.995289 l -0.07623,0.367046 -9.159459,-2.67e-4 -9.159459,-2.67e-4 -5.261056,-18.919231 C 63.995198,62.406379 61.581925,53.802633 61.52595,53.692519 c -0.08023,-0.157825 -0.127253,-0.129571 -0.222136,0.133471 -0.0662,0.183523 -2.457254,8.787408 -5.313453,19.119745 l -5.193089,18.786067 -9.144187,-1.83e-4 -9.144187,-1.82e-4 z"
     id="path82" />
</svg>
